# xmcd
#
# Track frame offsets: 
#        182
#        14157
#        25800
#        36445
#        48320
#        61607
#        74990
#        84380
#        96595
#        110295
#
# Disc length: 1608 seconds
#
# Revision: 4
# Processed by: cddbd v1.5.2PL0 Copyright (c) Steve Scherf et al.
# Submitted via: ExactAudioCopy v0.90b4
#
DISCID=8a06460a
DTITLE=Jim Reeves - All Time Gospet Favorites
DYEAR=1900
DGENRE=Country
TTITLE0=Whispering Hope
TTITLE1=I'll Fly Away
TTITLE2=Scarlet Ribbons
TTITLE3=May The Good Lord Bless And Keep You
TTITLE4=It Is No Secret
TTITLE5=My Chathedral
TTITLE6=Padre of Old San Antone
TTITLE7=We Thank Thee
TTITLE8=Trouble In The Amen Corner
TTITLE9=In The Garden
EXTD=
EXTT0=
EXTT1=
EXTT2=
EXTT3=
EXTT4=
EXTT5=
EXTT6=
EXTT7=
EXTT8=
EXTT9=
PLAYORDER=
